# xmcd CD database file
#
# Track frame offsets:
#	150
#	17191
#	36621
#	59533
#	79965
#	111537
#	134667
#	164470
#	196942
#	239409
#
# Disc length: 3725 seconds
#
# Revision: 1
# Processed by: cddbd v1.5.1PL0 Copyright (c) Steve Scherf et al.
# Submitted via: CDex 1.50beta9
#
DISCID=990e8b0a
DTITLE=Bermuda Acoustic Trio - Naturally Live
DYEAR=2002
DGENRE=Acoustic
TTITLE0=Blowin' in the Wind
TTITLE1=Come Together
TTITLE2=Georgy Porgy
TTITLE3=Superstition
TTITLE4=Money for Nothing
TTITLE5=Rude Mood
TTITLE6=What's Up
TTITLE7=Blue Suede Shoes
TTITLE8=Comfortambly Numb
TTITLE9=Pride and Joy
EXTD=YEAR: 2002
EXTT0=
EXTT1=
EXTT2=
EXTT3=
EXTT4=
EXTT5=
EXTT6=
EXTT7=
EXTT8=
EXTT9=
PLAYORDER=
